<mxfile host="app.diagrams.net" modified="2023-10-17T08:47:02.419Z" agent="Mozilla/5.0 (Windows NT 10.0; Win64; x64; rv:109.0) Gecko/20100101 Firefox/118.0" etag="sIQe4D1moIlLE4BsC1yi" version="22.0.4" type="device">
  <diagram id="C5RBs43oDa-KdzZeNtuy" name="Page-1">
    <mxGraphModel dx="1888" dy="763" grid="0" gridSize="10" guides="1" tooltips="1" connect="1" arrows="1" fold="1" page="1" pageScale="1" pageWidth="827" pageHeight="1169" math="0" shadow="0">
      <root>
        <mxCell id="WIyWlLk6GJQsqaUBKTNV-0" />
        <mxCell id="WIyWlLk6GJQsqaUBKTNV-1" parent="WIyWlLk6GJQsqaUBKTNV-0" />
        <mxCell id="380VDxpQ8Sr3hK74BQXG-4" value="Program" style="swimlane;fontStyle=0;childLayout=stackLayout;horizontal=1;startSize=26;fillColor=none;horizontalStack=0;resizeParent=1;resizeParentMax=0;resizeLast=0;collapsible=1;marginBottom=0;whiteSpace=wrap;html=1;" parent="WIyWlLk6GJQsqaUBKTNV-1" vertex="1">
          <mxGeometry x="30" y="50" width="140" height="52" as="geometry" />
        </mxCell>
        <mxCell id="380VDxpQ8Sr3hK74BQXG-5" value="+ Main(): void" style="text;strokeColor=none;fillColor=none;align=left;verticalAlign=top;spacingLeft=4;spacingRight=4;overflow=hidden;rotatable=0;points=[[0,0.5],[1,0.5]];portConstraint=eastwest;whiteSpace=wrap;html=1;" parent="380VDxpQ8Sr3hK74BQXG-4" vertex="1">
          <mxGeometry y="26" width="140" height="26" as="geometry" />
        </mxCell>
        <mxCell id="380VDxpQ8Sr3hK74BQXG-15" value="" style="endArrow=open;endFill=1;endSize=12;html=1;rounded=0;" parent="WIyWlLk6GJQsqaUBKTNV-1" edge="1">
          <mxGeometry width="160" relative="1" as="geometry">
            <mxPoint x="170" y="80" as="sourcePoint" />
            <mxPoint x="260" y="80" as="targetPoint" />
          </mxGeometry>
        </mxCell>
        <mxCell id="380VDxpQ8Sr3hK74BQXG-16" value="View::GameForm: Form" style="swimlane;fontStyle=1;align=center;verticalAlign=top;childLayout=stackLayout;horizontal=1;startSize=26;horizontalStack=0;resizeParent=1;resizeParentMax=0;resizeLast=0;collapsible=1;marginBottom=0;whiteSpace=wrap;html=1;" parent="WIyWlLk6GJQsqaUBKTNV-1" vertex="1">
          <mxGeometry x="260" y="50" width="348" height="420" as="geometry" />
        </mxCell>
        <mxCell id="380VDxpQ8Sr3hK74BQXG-17" value="&lt;div&gt;- _dataAccess: IRobotPigsDataAccess&lt;/div&gt;&lt;div&gt;- _model: GameModel&lt;/div&gt;&lt;div&gt;- _grid: Label[.]&lt;/div&gt;&lt;div&gt;- _round: Timer&lt;/div&gt;&lt;div&gt;- activep: int&lt;br&gt;&lt;/div&gt;&lt;div&gt;&lt;br&gt;&lt;/div&gt;" style="text;strokeColor=none;fillColor=none;align=left;verticalAlign=top;spacingLeft=4;spacingRight=4;overflow=hidden;rotatable=0;points=[[0,0.5],[1,0.5]];portConstraint=eastwest;whiteSpace=wrap;html=1;" parent="380VDxpQ8Sr3hK74BQXG-16" vertex="1">
          <mxGeometry y="26" width="348" height="84" as="geometry" />
        </mxCell>
        <mxCell id="380VDxpQ8Sr3hK74BQXG-18" value="" style="line;strokeWidth=1;fillColor=none;align=left;verticalAlign=middle;spacingTop=-1;spacingLeft=3;spacingRight=3;rotatable=0;labelPosition=right;points=[];portConstraint=eastwest;strokeColor=inherit;" parent="380VDxpQ8Sr3hK74BQXG-16" vertex="1">
          <mxGeometry y="110" width="348" height="8" as="geometry" />
        </mxCell>
        <mxCell id="380VDxpQ8Sr3hK74BQXG-19" value="&lt;div&gt;+Game()&lt;/div&gt;&lt;div&gt;-NewGame():void&lt;/div&gt;&lt;div&gt;-SetupTable():bool&lt;/div&gt;&lt;div&gt;-GenerateTable():bool&lt;/div&gt;&lt;div&gt;+Hits(object,EventData):void&lt;/div&gt;&lt;div&gt;+Fires(object,EventData):void&lt;/div&gt;&lt;div&gt;+Moves(object,EventData):void&lt;/div&gt;&lt;div&gt;+HPChange(object,EventData):void&lt;/div&gt;&lt;div&gt;+GameOver(object,EventData):void&lt;/div&gt;&lt;div&gt;+MenuFileNewGame_Click(object,EventArgs):void&lt;/div&gt;&lt;div&gt;+NewRound():void&lt;/div&gt;&lt;div&gt;+StartRound():void&lt;/div&gt;&lt;div&gt;+Round(object,EventArgs):void&lt;/div&gt;&lt;div&gt;+SetOrders_Click(object,EventArgs):void&lt;/div&gt;&lt;div&gt;+NextButton_Click(object,EventArgs):void&lt;/div&gt;&lt;div&gt;+Automatic_Checked(object,EventArgs):void&lt;br&gt;&lt;/div&gt;&lt;div&gt;&lt;br&gt;&lt;/div&gt;&lt;div&gt;&amp;lt;&amp;lt;async&amp;gt;&amp;gt;&lt;br&gt;&lt;/div&gt;&lt;div&gt;+MenuFileLoadGame_Click(object,EventArgs):void&lt;/div&gt;&lt;div&gt;+MenuFileSaveGame_Click(object,EventArgs):void&lt;/div&gt;" style="text;strokeColor=none;fillColor=none;align=left;verticalAlign=top;spacingLeft=4;spacingRight=4;overflow=hidden;rotatable=0;points=[[0,0.5],[1,0.5]];portConstraint=eastwest;whiteSpace=wrap;html=1;" parent="380VDxpQ8Sr3hK74BQXG-16" vertex="1">
          <mxGeometry y="118" width="348" height="302" as="geometry" />
        </mxCell>
        <mxCell id="380VDxpQ8Sr3hK74BQXG-25" value="Persistence::Pig" style="swimlane;fontStyle=1;align=center;verticalAlign=top;childLayout=stackLayout;horizontal=1;startSize=26;horizontalStack=0;resizeParent=1;resizeParentMax=0;resizeLast=0;collapsible=1;marginBottom=0;whiteSpace=wrap;html=1;" parent="WIyWlLk6GJQsqaUBKTNV-1" vertex="1">
          <mxGeometry x="915" y="1054" width="160" height="280" as="geometry" />
        </mxCell>
        <mxCell id="380VDxpQ8Sr3hK74BQXG-26" value="&lt;div&gt;- _board:Board&lt;/div&gt;&lt;div&gt;- _hp:int&lt;/div&gt;&lt;div&gt;- _pos:Pos&lt;/div&gt;&lt;div&gt;- _orders:String[.]&lt;br&gt;&lt;/div&gt;&lt;div&gt;&lt;br&gt;&lt;/div&gt;" style="text;strokeColor=none;fillColor=none;align=left;verticalAlign=top;spacingLeft=4;spacingRight=4;overflow=hidden;rotatable=0;points=[[0,0.5],[1,0.5]];portConstraint=eastwest;whiteSpace=wrap;html=1;" parent="380VDxpQ8Sr3hK74BQXG-25" vertex="1">
          <mxGeometry y="26" width="160" height="64" as="geometry" />
        </mxCell>
        <mxCell id="380VDxpQ8Sr3hK74BQXG-27" value="" style="line;strokeWidth=1;fillColor=none;align=left;verticalAlign=middle;spacingTop=-1;spacingLeft=3;spacingRight=3;rotatable=0;labelPosition=right;points=[];portConstraint=eastwest;strokeColor=inherit;" parent="380VDxpQ8Sr3hK74BQXG-25" vertex="1">
          <mxGeometry y="90" width="160" height="8" as="geometry" />
        </mxCell>
        <mxCell id="380VDxpQ8Sr3hK74BQXG-28" value="&lt;div&gt;+ Pig(Pos,Board)&lt;/div&gt;&lt;div&gt;+SetPos(Pos):void&lt;/div&gt;&lt;div&gt;+CreateAction(int):Action&lt;/div&gt;&lt;div&gt;-Validate(String[.]):void&lt;/div&gt;&lt;div&gt;+AllCommands():String[.]&lt;/div&gt;&lt;div&gt;+TakeDmg():void&lt;/div&gt;&lt;div&gt;+Parse(String[.]):void&lt;/div&gt;&lt;div&gt;&lt;br&gt;&lt;/div&gt;&lt;div&gt;&amp;lt;&amp;lt;property&amp;gt;&amp;gt;&lt;/div&gt;&lt;div&gt;+Pos:Pos&lt;/div&gt;&lt;div&gt;+Hp:int&lt;/div&gt;&lt;div&gt;+IsReady:bool&lt;br&gt;&lt;/div&gt;" style="text;strokeColor=none;fillColor=none;align=left;verticalAlign=top;spacingLeft=4;spacingRight=4;overflow=hidden;rotatable=0;points=[[0,0.5],[1,0.5]];portConstraint=eastwest;whiteSpace=wrap;html=1;" parent="380VDxpQ8Sr3hK74BQXG-25" vertex="1">
          <mxGeometry y="98" width="160" height="182" as="geometry" />
        </mxCell>
        <mxCell id="380VDxpQ8Sr3hK74BQXG-29" value="Persistence::Action" style="swimlane;fontStyle=1;align=center;verticalAlign=top;childLayout=stackLayout;horizontal=1;startSize=26;horizontalStack=0;resizeParent=1;resizeParentMax=0;resizeLast=0;collapsible=1;marginBottom=0;whiteSpace=wrap;html=1;" parent="WIyWlLk6GJQsqaUBKTNV-1" vertex="1">
          <mxGeometry x="579" y="1054" width="160" height="153" as="geometry" />
        </mxCell>
        <mxCell id="380VDxpQ8Sr3hK74BQXG-124" value="&lt;div&gt;-_type:ActionType&lt;/div&gt;&lt;div&gt;-_newpos:Pos&lt;/div&gt;" style="text;strokeColor=none;fillColor=none;align=left;verticalAlign=top;spacingLeft=4;spacingRight=4;overflow=hidden;rotatable=0;points=[[0,0.5],[1,0.5]];portConstraint=eastwest;whiteSpace=wrap;html=1;" parent="380VDxpQ8Sr3hK74BQXG-29" vertex="1">
          <mxGeometry y="26" width="160" height="37" as="geometry" />
        </mxCell>
        <mxCell id="380VDxpQ8Sr3hK74BQXG-31" value="" style="line;strokeWidth=1;fillColor=none;align=left;verticalAlign=middle;spacingTop=-1;spacingLeft=3;spacingRight=3;rotatable=0;labelPosition=right;points=[];portConstraint=eastwest;strokeColor=inherit;" parent="380VDxpQ8Sr3hK74BQXG-29" vertex="1">
          <mxGeometry y="63" width="160" height="8" as="geometry" />
        </mxCell>
        <mxCell id="380VDxpQ8Sr3hK74BQXG-32" value="&lt;div&gt;+ Action(ActionType,Pos)&lt;/div&gt;&lt;div&gt;&lt;br&gt;&lt;/div&gt;&lt;div&gt;&amp;lt;&amp;lt;property&amp;gt;&amp;gt;&lt;/div&gt;&lt;div&gt;+Type:ActionType&lt;/div&gt;&lt;div&gt;+NewPos:Pos&lt;/div&gt;" style="text;strokeColor=none;fillColor=none;align=left;verticalAlign=top;spacingLeft=4;spacingRight=4;overflow=hidden;rotatable=0;points=[[0,0.5],[1,0.5]];portConstraint=eastwest;whiteSpace=wrap;html=1;" parent="380VDxpQ8Sr3hK74BQXG-29" vertex="1">
          <mxGeometry y="71" width="160" height="82" as="geometry" />
        </mxCell>
        <mxCell id="380VDxpQ8Sr3hK74BQXG-37" value="&lt;div&gt;&amp;lt;enumeration&amp;gt;&lt;/div&gt;&lt;div&gt;Persistence::ActionType&lt;br&gt;&lt;/div&gt;" style="swimlane;fontStyle=0;childLayout=stackLayout;horizontal=1;startSize=32;fillColor=none;horizontalStack=0;resizeParent=1;resizeParentMax=0;resizeLast=0;collapsible=1;marginBottom=0;whiteSpace=wrap;html=1;" parent="WIyWlLk6GJQsqaUBKTNV-1" vertex="1">
          <mxGeometry x="353" y="1037" width="140" height="98" as="geometry" />
        </mxCell>
        <mxCell id="380VDxpQ8Sr3hK74BQXG-38" value="&lt;div align=&quot;center&quot;&gt;Move&lt;/div&gt;&lt;div align=&quot;center&quot;&gt;Turn&lt;/div&gt;&lt;div align=&quot;center&quot;&gt;Hit&lt;/div&gt;&lt;div align=&quot;center&quot;&gt;Fire&lt;br&gt;&lt;/div&gt;" style="text;strokeColor=none;fillColor=none;align=center;verticalAlign=top;spacingLeft=4;spacingRight=4;overflow=hidden;rotatable=0;points=[[0,0.5],[1,0.5]];portConstraint=eastwest;whiteSpace=wrap;html=1;" parent="380VDxpQ8Sr3hK74BQXG-37" vertex="1">
          <mxGeometry y="32" width="140" height="66" as="geometry" />
        </mxCell>
        <mxCell id="380VDxpQ8Sr3hK74BQXG-42" value="" style="endArrow=open;endFill=1;endSize=12;html=1;rounded=0;exitX=-0.031;exitY=0.033;exitDx=0;exitDy=0;exitPerimeter=0;entryX=1.031;entryY=0.415;entryDx=0;entryDy=0;entryPerimeter=0;" parent="WIyWlLk6GJQsqaUBKTNV-1" source="380VDxpQ8Sr3hK74BQXG-28" target="380VDxpQ8Sr3hK74BQXG-32" edge="1">
          <mxGeometry width="160" relative="1" as="geometry">
            <mxPoint x="507" y="816" as="sourcePoint" />
            <mxPoint x="759" y="1064" as="targetPoint" />
          </mxGeometry>
        </mxCell>
        <mxCell id="380VDxpQ8Sr3hK74BQXG-44" value="Persistence::Pos" style="swimlane;fontStyle=1;align=center;verticalAlign=top;childLayout=stackLayout;horizontal=1;startSize=26;horizontalStack=0;resizeParent=1;resizeParentMax=0;resizeLast=0;collapsible=1;marginBottom=0;whiteSpace=wrap;html=1;" parent="WIyWlLk6GJQsqaUBKTNV-1" vertex="1">
          <mxGeometry x="413.00000000000006" y="1336" width="400" height="274" as="geometry" />
        </mxCell>
        <mxCell id="380VDxpQ8Sr3hK74BQXG-45" value="&lt;div&gt;- _x:int&lt;/div&gt;&lt;div&gt;- _y:int&lt;/div&gt;&lt;div&gt;- _dir: Direction&lt;br&gt;&lt;/div&gt;" style="text;strokeColor=none;fillColor=none;align=left;verticalAlign=top;spacingLeft=4;spacingRight=4;overflow=hidden;rotatable=0;points=[[0,0.5],[1,0.5]];portConstraint=eastwest;whiteSpace=wrap;html=1;" parent="380VDxpQ8Sr3hK74BQXG-44" vertex="1">
          <mxGeometry y="26" width="400" height="51" as="geometry" />
        </mxCell>
        <mxCell id="380VDxpQ8Sr3hK74BQXG-46" value="" style="line;strokeWidth=1;fillColor=none;align=left;verticalAlign=middle;spacingTop=-1;spacingLeft=3;spacingRight=3;rotatable=0;labelPosition=right;points=[];portConstraint=eastwest;strokeColor=inherit;" parent="380VDxpQ8Sr3hK74BQXG-44" vertex="1">
          <mxGeometry y="77" width="400" height="8" as="geometry" />
        </mxCell>
        <mxCell id="380VDxpQ8Sr3hK74BQXG-47" value="&lt;div&gt;+ Pos(int,int,Direction)&lt;/div&gt;&lt;div&gt;+static SamePlace(Pos,Pos):bool&lt;/div&gt;&lt;div&gt;+Move(MovementDirection,int):Pos&lt;/div&gt;&lt;div&gt;+Turn(MovementDirection):Pos&lt;/div&gt;&lt;div&gt;+static AddRelativeDirections(MovementDirection,Direction):Direction&lt;/div&gt;&lt;div&gt;+InView(Pos):bool&lt;/div&gt;&lt;div&gt;+InRadius(Pos,[int]):bool&lt;/div&gt;&lt;div&gt;+static operator==(Pos,Pos):bool&lt;br&gt;&lt;/div&gt;&lt;div&gt;&amp;lt;&amp;lt;property&amp;gt;&amp;gt;&lt;/div&gt;&lt;div&gt;+X:int&lt;/div&gt;&lt;div&gt;+Y:int&lt;/div&gt;&lt;div&gt;+Dir:Direction&lt;br&gt;&lt;/div&gt;" style="text;strokeColor=none;fillColor=none;align=left;verticalAlign=top;spacingLeft=4;spacingRight=4;overflow=hidden;rotatable=0;points=[[0,0.5],[1,0.5]];portConstraint=eastwest;whiteSpace=wrap;html=1;" parent="380VDxpQ8Sr3hK74BQXG-44" vertex="1">
          <mxGeometry y="85" width="400" height="189" as="geometry" />
        </mxCell>
        <mxCell id="380VDxpQ8Sr3hK74BQXG-52" value="&lt;div&gt;&amp;lt;enumeration&amp;gt;&lt;/div&gt;&lt;div&gt;Persistence::MovementDirection&lt;br&gt;&lt;/div&gt;" style="swimlane;fontStyle=0;childLayout=stackLayout;horizontal=1;startSize=32;fillColor=none;horizontalStack=0;resizeParent=1;resizeParentMax=0;resizeLast=0;collapsible=1;marginBottom=0;whiteSpace=wrap;html=1;" parent="WIyWlLk6GJQsqaUBKTNV-1" vertex="1">
          <mxGeometry x="68" y="1198" width="273" height="98" as="geometry" />
        </mxCell>
        <mxCell id="380VDxpQ8Sr3hK74BQXG-53" value="&lt;div&gt;Left&lt;/div&gt;&lt;div&gt;Right&lt;/div&gt;&lt;div&gt;Forward&lt;/div&gt;&lt;div&gt;Back&lt;br&gt;&lt;/div&gt;" style="text;strokeColor=none;fillColor=none;align=center;verticalAlign=top;spacingLeft=4;spacingRight=4;overflow=hidden;rotatable=0;points=[[0,0.5],[1,0.5]];portConstraint=eastwest;whiteSpace=wrap;html=1;" parent="380VDxpQ8Sr3hK74BQXG-52" vertex="1">
          <mxGeometry y="32" width="273" height="66" as="geometry" />
        </mxCell>
        <mxCell id="380VDxpQ8Sr3hK74BQXG-54" value="&lt;div&gt;&amp;lt;enumeration&amp;gt;&lt;/div&gt;&lt;div&gt;Persistence::Direction&lt;br&gt;&lt;/div&gt;" style="swimlane;fontStyle=0;childLayout=stackLayout;horizontal=1;startSize=32;fillColor=none;horizontalStack=0;resizeParent=1;resizeParentMax=0;resizeLast=0;collapsible=1;marginBottom=0;whiteSpace=wrap;html=1;" parent="WIyWlLk6GJQsqaUBKTNV-1" vertex="1">
          <mxGeometry x="104" y="1395" width="140" height="98" as="geometry">
            <mxRectangle x="766" y="827" width="119" height="41" as="alternateBounds" />
          </mxGeometry>
        </mxCell>
        <mxCell id="380VDxpQ8Sr3hK74BQXG-55" value="&lt;div&gt;North&lt;/div&gt;&lt;div&gt;East&lt;/div&gt;&lt;div&gt;South&lt;/div&gt;&lt;div&gt;West&lt;br&gt;&lt;/div&gt;" style="text;strokeColor=none;fillColor=none;align=center;verticalAlign=top;spacingLeft=4;spacingRight=4;overflow=hidden;rotatable=0;points=[[0,0.5],[1,0.5]];portConstraint=eastwest;whiteSpace=wrap;html=1;" parent="380VDxpQ8Sr3hK74BQXG-54" vertex="1">
          <mxGeometry y="32" width="140" height="66" as="geometry" />
        </mxCell>
        <mxCell id="380VDxpQ8Sr3hK74BQXG-57" value="" style="endArrow=open;endFill=1;endSize=12;html=1;rounded=0;exitX=-0.002;exitY=0.026;exitDx=0;exitDy=0;exitPerimeter=0;entryX=0.864;entryY=0.985;entryDx=0;entryDy=0;entryPerimeter=0;" parent="WIyWlLk6GJQsqaUBKTNV-1" source="380VDxpQ8Sr3hK74BQXG-44" target="380VDxpQ8Sr3hK74BQXG-53" edge="1">
          <mxGeometry width="160" relative="1" as="geometry">
            <mxPoint x="1079.44" y="972" as="sourcePoint" />
            <mxPoint x="1121.44" y="1012" as="targetPoint" />
            <Array as="points">
              <mxPoint x="305" y="1343" />
            </Array>
          </mxGeometry>
        </mxCell>
        <mxCell id="380VDxpQ8Sr3hK74BQXG-64" value="" style="endArrow=diamondThin;endFill=0;endSize=24;html=1;rounded=0;entryX=1.029;entryY=0.194;entryDx=0;entryDy=0;entryPerimeter=0;exitX=0.003;exitY=0.98;exitDx=0;exitDy=0;exitPerimeter=0;" parent="WIyWlLk6GJQsqaUBKTNV-1" source="380VDxpQ8Sr3hK74BQXG-45" target="380VDxpQ8Sr3hK74BQXG-54" edge="1">
          <mxGeometry width="160" relative="1" as="geometry">
            <mxPoint x="1119" y="1181.0020000000004" as="sourcePoint" />
            <mxPoint x="1249.44" y="1187.1620000000003" as="targetPoint" />
          </mxGeometry>
        </mxCell>
        <mxCell id="380VDxpQ8Sr3hK74BQXG-65" value="&lt;div&gt;_dir&lt;/div&gt;" style="edgeLabel;html=1;align=center;verticalAlign=middle;resizable=0;points=[];" parent="380VDxpQ8Sr3hK74BQXG-64" vertex="1" connectable="0">
          <mxGeometry x="0.2625" y="-2" relative="1" as="geometry">
            <mxPoint x="-27" y="18" as="offset" />
          </mxGeometry>
        </mxCell>
        <mxCell id="380VDxpQ8Sr3hK74BQXG-66" value="" style="endArrow=diamondThin;endFill=0;endSize=24;html=1;rounded=0;exitX=0;exitY=0.445;exitDx=0;exitDy=0;exitPerimeter=0;entryX=0.923;entryY=0;entryDx=0;entryDy=0;entryPerimeter=0;" parent="WIyWlLk6GJQsqaUBKTNV-1" edge="1">
          <mxGeometry width="160" relative="1" as="geometry">
            <mxPoint x="910" y="1230.9899999999998" as="sourcePoint" />
            <mxPoint x="777.1999999999998" y="1334" as="targetPoint" />
            <Array as="points">
              <mxPoint x="780" y="1231" />
            </Array>
          </mxGeometry>
        </mxCell>
        <mxCell id="380VDxpQ8Sr3hK74BQXG-68" value="&lt;div&gt;_pos&lt;/div&gt;" style="edgeLabel;html=1;align=center;verticalAlign=middle;resizable=0;points=[];" parent="380VDxpQ8Sr3hK74BQXG-66" vertex="1" connectable="0">
          <mxGeometry x="0.0711" y="2" relative="1" as="geometry">
            <mxPoint x="17" y="69" as="offset" />
          </mxGeometry>
        </mxCell>
        <mxCell id="380VDxpQ8Sr3hK74BQXG-69" value="" style="endArrow=diamondThin;endFill=0;endSize=24;html=1;rounded=0;exitX=0.451;exitY=1.014;exitDx=0;exitDy=0;exitPerimeter=0;entryX=0.75;entryY=0;entryDx=0;entryDy=0;" parent="WIyWlLk6GJQsqaUBKTNV-1" source="380VDxpQ8Sr3hK74BQXG-63" target="380VDxpQ8Sr3hK74BQXG-25" edge="1">
          <mxGeometry width="160" relative="1" as="geometry">
            <mxPoint x="300" y="566" as="sourcePoint" />
            <mxPoint x="107" y="632" as="targetPoint" />
            <Array as="points" />
          </mxGeometry>
        </mxCell>
        <mxCell id="380VDxpQ8Sr3hK74BQXG-70" value="_plr1,_plr2" style="edgeLabel;html=1;align=center;verticalAlign=middle;resizable=0;points=[];" parent="380VDxpQ8Sr3hK74BQXG-69" vertex="1" connectable="0">
          <mxGeometry x="0.0711" y="2" relative="1" as="geometry">
            <mxPoint x="34" y="1" as="offset" />
          </mxGeometry>
        </mxCell>
        <mxCell id="380VDxpQ8Sr3hK74BQXG-72" value="&lt;div&gt;&amp;lt;interface&amp;gt;&lt;/div&gt;&lt;div&gt;Persistence::IRobotPigsDataAccess&lt;/div&gt;" style="swimlane;fontStyle=0;childLayout=stackLayout;horizontal=1;startSize=31;fillColor=none;horizontalStack=0;resizeParent=1;resizeParentMax=0;resizeLast=0;collapsible=1;marginBottom=0;whiteSpace=wrap;html=1;" parent="WIyWlLk6GJQsqaUBKTNV-1" vertex="1">
          <mxGeometry x="830" y="114" width="249" height="77" as="geometry" />
        </mxCell>
        <mxCell id="380VDxpQ8Sr3hK74BQXG-73" value="&lt;div&gt;+LoadAsync(String):Task&amp;lt;Board&amp;gt;&lt;/div&gt;&lt;div&gt;+SaveAsync(String,Board):Task&lt;br&gt;&lt;/div&gt;" style="text;strokeColor=none;fillColor=none;align=left;verticalAlign=top;spacingLeft=4;spacingRight=4;overflow=hidden;rotatable=0;points=[[0,0.5],[1,0.5]];portConstraint=eastwest;whiteSpace=wrap;html=1;" parent="380VDxpQ8Sr3hK74BQXG-72" vertex="1">
          <mxGeometry y="31" width="249" height="46" as="geometry" />
        </mxCell>
        <mxCell id="380VDxpQ8Sr3hK74BQXG-80" value="Persistence::BoardDataException:Exception" style="swimlane;fontStyle=0;childLayout=stackLayout;horizontal=1;startSize=26;fillColor=none;horizontalStack=0;resizeParent=1;resizeParentMax=0;resizeLast=0;collapsible=1;marginBottom=0;whiteSpace=wrap;html=1;" parent="WIyWlLk6GJQsqaUBKTNV-1" vertex="1">
          <mxGeometry x="1304" y="231" width="273" height="62" as="geometry" />
        </mxCell>
        <mxCell id="380VDxpQ8Sr3hK74BQXG-81" value="+BoardDataException(string,Exception)" style="text;strokeColor=none;fillColor=none;align=left;verticalAlign=top;spacingLeft=4;spacingRight=4;overflow=hidden;rotatable=0;points=[[0,0.5],[1,0.5]];portConstraint=eastwest;whiteSpace=wrap;html=1;" parent="380VDxpQ8Sr3hK74BQXG-80" vertex="1">
          <mxGeometry y="26" width="273" height="36" as="geometry" />
        </mxCell>
        <mxCell id="380VDxpQ8Sr3hK74BQXG-85" value="" style="endArrow=open;endFill=1;endSize=12;html=1;rounded=0;entryX=0.466;entryY=-0.002;entryDx=0;entryDy=0;entryPerimeter=0;exitX=0.713;exitY=0.981;exitDx=0;exitDy=0;exitPerimeter=0;" parent="WIyWlLk6GJQsqaUBKTNV-1" source="380VDxpQ8Sr3hK74BQXG-77" target="380VDxpQ8Sr3hK74BQXG-80" edge="1">
          <mxGeometry width="160" relative="1" as="geometry">
            <mxPoint x="1431" y="183" as="sourcePoint" />
            <mxPoint x="233" y="549" as="targetPoint" />
          </mxGeometry>
        </mxCell>
        <mxCell id="380VDxpQ8Sr3hK74BQXG-92" value="" style="endArrow=diamondThin;endFill=0;endSize=24;html=1;rounded=0;entryX=0;entryY=0.25;entryDx=0;entryDy=0;exitX=1.001;exitY=0.667;exitDx=0;exitDy=0;exitPerimeter=0;" parent="WIyWlLk6GJQsqaUBKTNV-1" source="380VDxpQ8Sr3hK74BQXG-17" target="380VDxpQ8Sr3hK74BQXG-72" edge="1">
          <mxGeometry width="160" relative="1" as="geometry">
            <mxPoint x="740" y="277" as="sourcePoint" />
            <mxPoint x="787" y="431" as="targetPoint" />
          </mxGeometry>
        </mxCell>
        <mxCell id="380VDxpQ8Sr3hK74BQXG-93" value="&lt;div&gt;_dataAccess&lt;/div&gt;" style="edgeLabel;html=1;align=center;verticalAlign=middle;resizable=0;points=[];" parent="380VDxpQ8Sr3hK74BQXG-92" vertex="1" connectable="0">
          <mxGeometry x="0.0711" y="2" relative="1" as="geometry">
            <mxPoint x="41" y="-18" as="offset" />
          </mxGeometry>
        </mxCell>
        <mxCell id="380VDxpQ8Sr3hK74BQXG-60" value="Persistence::Board" style="swimlane;fontStyle=1;align=center;verticalAlign=top;childLayout=stackLayout;horizontal=1;startSize=26;horizontalStack=0;resizeParent=1;resizeParentMax=0;resizeLast=0;collapsible=1;marginBottom=0;whiteSpace=wrap;html=1;" parent="WIyWlLk6GJQsqaUBKTNV-1" vertex="1">
          <mxGeometry x="941" y="742" width="206" height="237" as="geometry" />
        </mxCell>
        <mxCell id="380VDxpQ8Sr3hK74BQXG-61" value="&lt;div&gt;- _plr1:Pig&lt;/div&gt;&lt;div&gt;- _plr2:Pig&lt;/div&gt;&lt;div&gt;- _n:int&lt;/div&gt;&lt;div&gt;&lt;br&gt;&lt;/div&gt;" style="text;strokeColor=none;fillColor=none;align=left;verticalAlign=top;spacingLeft=4;spacingRight=4;overflow=hidden;rotatable=0;points=[[0,0.5],[1,0.5]];portConstraint=eastwest;whiteSpace=wrap;html=1;" parent="380VDxpQ8Sr3hK74BQXG-60" vertex="1">
          <mxGeometry y="26" width="206" height="64" as="geometry" />
        </mxCell>
        <mxCell id="380VDxpQ8Sr3hK74BQXG-62" value="" style="line;strokeWidth=1;fillColor=none;align=left;verticalAlign=middle;spacingTop=-1;spacingLeft=3;spacingRight=3;rotatable=0;labelPosition=right;points=[];portConstraint=eastwest;strokeColor=inherit;" parent="380VDxpQ8Sr3hK74BQXG-60" vertex="1">
          <mxGeometry y="90" width="206" height="8" as="geometry" />
        </mxCell>
        <mxCell id="380VDxpQ8Sr3hK74BQXG-63" value="&lt;div&gt;+ Board(int)&lt;/div&gt;&lt;div&gt;+Board(int,(Pos,int),(Pos,int))&lt;/div&gt;&lt;div&gt;&lt;br&gt;&lt;/div&gt;&lt;div&gt;&lt;br&gt;&lt;/div&gt;&lt;div&gt;&amp;lt;&amp;lt;property&amp;gt;&amp;gt;&lt;/div&gt;&lt;div&gt;+N:int&lt;/div&gt;&lt;div&gt;+Plr1:Pig&lt;br&gt;&lt;/div&gt;&lt;div&gt;+Plr2:Pig&lt;/div&gt;&lt;div&gt;+IsReady:bool&lt;br&gt;&lt;/div&gt;" style="text;strokeColor=none;fillColor=none;align=left;verticalAlign=top;spacingLeft=4;spacingRight=4;overflow=hidden;rotatable=0;points=[[0,0.5],[1,0.5]];portConstraint=eastwest;whiteSpace=wrap;html=1;" parent="380VDxpQ8Sr3hK74BQXG-60" vertex="1">
          <mxGeometry y="98" width="206" height="139" as="geometry" />
        </mxCell>
        <mxCell id="380VDxpQ8Sr3hK74BQXG-97" value="" style="endArrow=open;endFill=1;endSize=12;html=1;rounded=0;exitX=0.764;exitY=1.015;exitDx=0;exitDy=0;exitPerimeter=0;entryX=0.393;entryY=-0.008;entryDx=0;entryDy=0;entryPerimeter=0;" parent="WIyWlLk6GJQsqaUBKTNV-1" source="380VDxpQ8Sr3hK74BQXG-73" target="380VDxpQ8Sr3hK74BQXG-60" edge="1">
          <mxGeometry width="160" relative="1" as="geometry">
            <mxPoint x="1076" y="578" as="sourcePoint" />
            <mxPoint x="1277" y="585" as="targetPoint" />
            <Array as="points" />
          </mxGeometry>
        </mxCell>
        <mxCell id="380VDxpQ8Sr3hK74BQXG-84" value="" style="endArrow=block;dashed=1;endFill=0;endSize=12;html=1;rounded=0;entryX=1;entryY=0.25;entryDx=0;entryDy=0;exitX=0;exitY=0.25;exitDx=0;exitDy=0;" parent="WIyWlLk6GJQsqaUBKTNV-1" source="380VDxpQ8Sr3hK74BQXG-76" target="380VDxpQ8Sr3hK74BQXG-72" edge="1">
          <mxGeometry width="160" relative="1" as="geometry">
            <mxPoint x="1594.7310000000002" y="424.7349999999999" as="sourcePoint" />
            <mxPoint x="1751.27" y="-39" as="targetPoint" />
          </mxGeometry>
        </mxCell>
        <mxCell id="380VDxpQ8Sr3hK74BQXG-76" value="Persistence::RobotPigsDataAccess:IRobotPigsDataAccess" style="swimlane;fontStyle=0;childLayout=stackLayout;horizontal=1;startSize=26;fillColor=none;horizontalStack=0;resizeParent=1;resizeParentMax=0;resizeLast=0;collapsible=1;marginBottom=0;whiteSpace=wrap;html=1;" parent="WIyWlLk6GJQsqaUBKTNV-1" vertex="1">
          <mxGeometry x="1125" y="114" width="429" height="79" as="geometry" />
        </mxCell>
        <mxCell id="380VDxpQ8Sr3hK74BQXG-77" value="&lt;div&gt;&amp;lt;&amp;lt;async&amp;gt;&amp;gt;&lt;/div&gt;&lt;div&gt;&lt;div&gt;+LoadAsync(String):Task&amp;lt;Board&amp;gt;&lt;/div&gt;&lt;div&gt;+SaveAsync(String,Board):Task&lt;br&gt;&lt;/div&gt;&lt;/div&gt;" style="text;strokeColor=none;fillColor=none;align=left;verticalAlign=top;spacingLeft=4;spacingRight=4;overflow=hidden;rotatable=0;points=[[0,0.5],[1,0.5]];portConstraint=eastwest;whiteSpace=wrap;html=1;" parent="380VDxpQ8Sr3hK74BQXG-76" vertex="1">
          <mxGeometry y="26" width="429" height="53" as="geometry" />
        </mxCell>
        <mxCell id="380VDxpQ8Sr3hK74BQXG-98" value="Model::GameModel" style="swimlane;fontStyle=1;align=center;verticalAlign=top;childLayout=stackLayout;horizontal=1;startSize=26;horizontalStack=0;resizeParent=1;resizeParentMax=0;resizeLast=0;collapsible=1;marginBottom=0;whiteSpace=wrap;html=1;" parent="WIyWlLk6GJQsqaUBKTNV-1" vertex="1">
          <mxGeometry x="381" y="527" width="350" height="406" as="geometry" />
        </mxCell>
        <mxCell id="380VDxpQ8Sr3hK74BQXG-99" value="&lt;div&gt;- _dataAccess: IRobotPigsDataAccess&lt;/div&gt;&lt;div&gt;- _board: Board&lt;/div&gt;&lt;div&gt;&lt;br&gt;&lt;/div&gt;" style="text;strokeColor=none;fillColor=none;align=left;verticalAlign=top;spacingLeft=4;spacingRight=4;overflow=hidden;rotatable=0;points=[[0,0.5],[1,0.5]];portConstraint=eastwest;whiteSpace=wrap;html=1;" parent="380VDxpQ8Sr3hK74BQXG-98" vertex="1">
          <mxGeometry y="26" width="350" height="39" as="geometry" />
        </mxCell>
        <mxCell id="380VDxpQ8Sr3hK74BQXG-100" value="" style="line;strokeWidth=1;fillColor=none;align=left;verticalAlign=middle;spacingTop=-1;spacingLeft=3;spacingRight=3;rotatable=0;labelPosition=right;points=[];portConstraint=eastwest;strokeColor=inherit;" parent="380VDxpQ8Sr3hK74BQXG-98" vertex="1">
          <mxGeometry y="65" width="350" height="8" as="geometry" />
        </mxCell>
        <mxCell id="380VDxpQ8Sr3hK74BQXG-101" value="&lt;div&gt;+GameModel(IRobotPigsDataAccess)&lt;/div&gt;&lt;div&gt;+NewGame(int):void&lt;/div&gt;&lt;div&gt;+Plr1Parse(String[.]):void&lt;/div&gt;&lt;div&gt;+Plr2Parse(String[.]):void&lt;/div&gt;&lt;div&gt;+PerformNext():void&lt;/div&gt;&lt;div&gt;+PrepareToPerform():bool&lt;/div&gt;&lt;div&gt;&lt;br&gt;&lt;/div&gt;&lt;div&gt;&amp;lt;&amp;lt;async&amp;gt;&amp;gt;&lt;/div&gt;&lt;div&gt;&lt;div&gt;+LoadAsync(String):Task&lt;/div&gt;+SaveAsync(String,Board):Task&lt;/div&gt;&lt;div&gt;&lt;br&gt;&lt;/div&gt;&lt;div&gt;&amp;lt;&amp;lt;property&amp;gt;&amp;gt;&lt;/div&gt;&lt;div&gt;+BoardSize:int&lt;/div&gt;&lt;div&gt;+Plr1:Pig&lt;/div&gt;&lt;div&gt;+Plr2:Pig&lt;/div&gt;&lt;div&gt;&lt;br&gt;&lt;/div&gt;&lt;div&gt;&amp;lt;&amp;lt;event&amp;gt;&amp;gt;&lt;/div&gt;&lt;div&gt;+HpChange(): EventHandler&amp;lt;EventData&amp;gt;&lt;/div&gt;&lt;div&gt;+Fires(): EventHandler&amp;lt;EventData&amp;gt;&lt;/div&gt;&lt;div&gt;+Hits(): EventHandler&amp;lt;EventData&amp;gt;&lt;/div&gt;&lt;div&gt;+Move(): EventHandler&amp;lt;EventData&amp;gt;&lt;/div&gt;&lt;div&gt;+Turn(): EventHandler&amp;lt;EventData&amp;gt;&lt;/div&gt;" style="text;strokeColor=none;fillColor=none;align=left;verticalAlign=top;spacingLeft=4;spacingRight=4;overflow=hidden;rotatable=0;points=[[0,0.5],[1,0.5]];portConstraint=eastwest;whiteSpace=wrap;html=1;" parent="380VDxpQ8Sr3hK74BQXG-98" vertex="1">
          <mxGeometry y="73" width="350" height="333" as="geometry" />
        </mxCell>
        <mxCell id="380VDxpQ8Sr3hK74BQXG-103" value="" style="endArrow=diamondThin;endFill=0;endSize=24;html=1;rounded=0;exitX=1.014;exitY=0.45;exitDx=0;exitDy=0;exitPerimeter=0;entryX=0.005;entryY=0.038;entryDx=0;entryDy=0;entryPerimeter=0;" parent="WIyWlLk6GJQsqaUBKTNV-1" source="380VDxpQ8Sr3hK74BQXG-101" target="380VDxpQ8Sr3hK74BQXG-60" edge="1">
          <mxGeometry width="160" relative="1" as="geometry">
            <mxPoint x="1124" y="992" as="sourcePoint" />
            <mxPoint x="555" y="1153" as="targetPoint" />
          </mxGeometry>
        </mxCell>
        <mxCell id="380VDxpQ8Sr3hK74BQXG-104" value="_board" style="edgeLabel;html=1;align=center;verticalAlign=middle;resizable=0;points=[];" parent="380VDxpQ8Sr3hK74BQXG-103" vertex="1" connectable="0">
          <mxGeometry x="0.0711" y="2" relative="1" as="geometry">
            <mxPoint x="58" y="-14" as="offset" />
          </mxGeometry>
        </mxCell>
        <mxCell id="380VDxpQ8Sr3hK74BQXG-105" value="" style="endArrow=diamondThin;endFill=0;endSize=24;html=1;rounded=0;exitX=1.008;exitY=0.134;exitDx=0;exitDy=0;exitPerimeter=0;entryX=0.37;entryY=0.975;entryDx=0;entryDy=0;entryPerimeter=0;" parent="WIyWlLk6GJQsqaUBKTNV-1" source="380VDxpQ8Sr3hK74BQXG-101" target="380VDxpQ8Sr3hK74BQXG-73" edge="1">
          <mxGeometry width="160" relative="1" as="geometry">
            <mxPoint x="506" y="767" as="sourcePoint" />
            <mxPoint x="898" y="501" as="targetPoint" />
            <Array as="points">
              <mxPoint x="916" y="645" />
            </Array>
          </mxGeometry>
        </mxCell>
        <mxCell id="380VDxpQ8Sr3hK74BQXG-106" value="&lt;div&gt;_dataAccess&lt;/div&gt;" style="edgeLabel;html=1;align=center;verticalAlign=middle;resizable=0;points=[];" parent="380VDxpQ8Sr3hK74BQXG-105" vertex="1" connectable="0">
          <mxGeometry x="0.0711" y="2" relative="1" as="geometry">
            <mxPoint x="-32" y="-260" as="offset" />
          </mxGeometry>
        </mxCell>
        <mxCell id="380VDxpQ8Sr3hK74BQXG-107" value="" style="endArrow=diamondThin;endFill=0;endSize=24;html=1;rounded=0;entryX=0.827;entryY=0.003;entryDx=0;entryDy=0;entryPerimeter=0;exitX=1.002;exitY=0.797;exitDx=0;exitDy=0;exitPerimeter=0;" parent="WIyWlLk6GJQsqaUBKTNV-1" source="380VDxpQ8Sr3hK74BQXG-19" target="380VDxpQ8Sr3hK74BQXG-98" edge="1">
          <mxGeometry width="160" relative="1" as="geometry">
            <mxPoint x="642" y="371" as="sourcePoint" />
            <mxPoint x="952" y="761" as="targetPoint" />
            <Array as="points">
              <mxPoint x="672" y="409" />
            </Array>
          </mxGeometry>
        </mxCell>
        <mxCell id="380VDxpQ8Sr3hK74BQXG-108" value="_model" style="edgeLabel;html=1;align=center;verticalAlign=middle;resizable=0;points=[];" parent="380VDxpQ8Sr3hK74BQXG-107" vertex="1" connectable="0">
          <mxGeometry x="0.0711" y="2" relative="1" as="geometry">
            <mxPoint x="29" y="53" as="offset" />
          </mxGeometry>
        </mxCell>
        <mxCell id="380VDxpQ8Sr3hK74BQXG-109" value="&lt;div&gt;&lt;br&gt;&lt;/div&gt;" style="edgeLabel;html=1;align=center;verticalAlign=middle;resizable=0;points=[];" parent="380VDxpQ8Sr3hK74BQXG-107" vertex="1" connectable="0">
          <mxGeometry x="0.6836" y="-1" relative="1" as="geometry">
            <mxPoint as="offset" />
          </mxGeometry>
        </mxCell>
        <mxCell id="380VDxpQ8Sr3hK74BQXG-110" value="" style="endArrow=open;endFill=1;endSize=12;html=1;rounded=0;exitX=0.001;exitY=0.28;exitDx=0;exitDy=0;exitPerimeter=0;entryX=0.988;entryY=0.062;entryDx=0;entryDy=0;entryPerimeter=0;" parent="WIyWlLk6GJQsqaUBKTNV-1" source="380VDxpQ8Sr3hK74BQXG-101" target="380VDxpQ8Sr3hK74BQXG-120" edge="1">
          <mxGeometry width="160" relative="1" as="geometry">
            <mxPoint x="1024" y="194" as="sourcePoint" />
            <mxPoint x="279" y="721" as="targetPoint" />
            <Array as="points" />
          </mxGeometry>
        </mxCell>
        <mxCell id="380VDxpQ8Sr3hK74BQXG-120" value="Model::EventData" style="swimlane;fontStyle=1;align=center;verticalAlign=top;childLayout=stackLayout;horizontal=1;startSize=26;horizontalStack=0;resizeParent=1;resizeParentMax=0;resizeLast=0;collapsible=1;marginBottom=0;whiteSpace=wrap;html=1;" parent="WIyWlLk6GJQsqaUBKTNV-1" vertex="1">
          <mxGeometry x="58" y="676" width="206" height="211" as="geometry" />
        </mxCell>
        <mxCell id="380VDxpQ8Sr3hK74BQXG-121" value="&lt;div&gt;- _p:Pig&lt;/div&gt;&lt;div&gt;- _pos:Pos&lt;/div&gt;&lt;div&gt;- _id:int&lt;/div&gt;&lt;div&gt;&lt;br&gt;&lt;/div&gt;" style="text;strokeColor=none;fillColor=none;align=left;verticalAlign=top;spacingLeft=4;spacingRight=4;overflow=hidden;rotatable=0;points=[[0,0.5],[1,0.5]];portConstraint=eastwest;whiteSpace=wrap;html=1;" parent="380VDxpQ8Sr3hK74BQXG-120" vertex="1">
          <mxGeometry y="26" width="206" height="64" as="geometry" />
        </mxCell>
        <mxCell id="380VDxpQ8Sr3hK74BQXG-122" value="" style="line;strokeWidth=1;fillColor=none;align=left;verticalAlign=middle;spacingTop=-1;spacingLeft=3;spacingRight=3;rotatable=0;labelPosition=right;points=[];portConstraint=eastwest;strokeColor=inherit;" parent="380VDxpQ8Sr3hK74BQXG-120" vertex="1">
          <mxGeometry y="90" width="206" height="8" as="geometry" />
        </mxCell>
        <mxCell id="380VDxpQ8Sr3hK74BQXG-123" value="&lt;div&gt;+ EventData(Pig,int)&lt;/div&gt;&lt;div&gt;+EventData(Pig,int,Pos)&lt;/div&gt;&lt;div&gt;&lt;br&gt;&lt;/div&gt;&lt;div&gt;&amp;lt;&amp;lt;property&amp;gt;&amp;gt;&lt;/div&gt;&lt;div&gt;+Pos:Pos&lt;/div&gt;&lt;div&gt;+Id:int&lt;/div&gt;&lt;div&gt;+P:Pig&lt;br&gt;&lt;/div&gt;" style="text;strokeColor=none;fillColor=none;align=left;verticalAlign=top;spacingLeft=4;spacingRight=4;overflow=hidden;rotatable=0;points=[[0,0.5],[1,0.5]];portConstraint=eastwest;whiteSpace=wrap;html=1;" parent="380VDxpQ8Sr3hK74BQXG-120" vertex="1">
          <mxGeometry y="98" width="206" height="113" as="geometry" />
        </mxCell>
        <mxCell id="380VDxpQ8Sr3hK74BQXG-125" value="" style="endArrow=diamondThin;endFill=0;endSize=24;html=1;rounded=0;exitX=0.013;exitY=0.047;exitDx=0;exitDy=0;exitPerimeter=0;entryX=1;entryY=0.25;entryDx=0;entryDy=0;" parent="WIyWlLk6GJQsqaUBKTNV-1" source="380VDxpQ8Sr3hK74BQXG-29" target="380VDxpQ8Sr3hK74BQXG-37" edge="1">
          <mxGeometry width="160" relative="1" as="geometry">
            <mxPoint x="614.8" y="981.9999999999998" as="sourcePoint" />
            <mxPoint x="481.99999999999983" y="1085.01" as="targetPoint" />
            <Array as="points" />
          </mxGeometry>
        </mxCell>
        <mxCell id="380VDxpQ8Sr3hK74BQXG-126" value="&lt;div&gt;_type&lt;/div&gt;" style="edgeLabel;html=1;align=center;verticalAlign=middle;resizable=0;points=[];" parent="380VDxpQ8Sr3hK74BQXG-125" vertex="1" connectable="0">
          <mxGeometry x="0.0711" y="2" relative="1" as="geometry">
            <mxPoint x="-4" y="14" as="offset" />
          </mxGeometry>
        </mxCell>
        <mxCell id="380VDxpQ8Sr3hK74BQXG-127" value="" style="endArrow=diamondThin;endFill=0;endSize=24;html=1;rounded=0;exitX=0.3;exitY=0.988;exitDx=0;exitDy=0;exitPerimeter=0;entryX=0.528;entryY=0;entryDx=0;entryDy=0;entryPerimeter=0;" parent="WIyWlLk6GJQsqaUBKTNV-1" source="380VDxpQ8Sr3hK74BQXG-32" target="380VDxpQ8Sr3hK74BQXG-44" edge="1">
          <mxGeometry width="160" relative="1" as="geometry">
            <mxPoint x="727" y="1274" as="sourcePoint" />
            <mxPoint x="598" y="1296" as="targetPoint" />
            <Array as="points" />
          </mxGeometry>
        </mxCell>
        <mxCell id="380VDxpQ8Sr3hK74BQXG-128" value="_newpos" style="edgeLabel;html=1;align=center;verticalAlign=middle;resizable=0;points=[];" parent="380VDxpQ8Sr3hK74BQXG-127" vertex="1" connectable="0">
          <mxGeometry x="0.0711" y="2" relative="1" as="geometry">
            <mxPoint x="-36" y="32" as="offset" />
          </mxGeometry>
        </mxCell>
        <mxCell id="380VDxpQ8Sr3hK74BQXG-129" value="" style="endArrow=diamondThin;endFill=0;endSize=24;html=1;rounded=0;exitX=0.493;exitY=0.991;exitDx=0;exitDy=0;exitPerimeter=0;entryX=0.1;entryY=0.007;entryDx=0;entryDy=0;entryPerimeter=0;" parent="WIyWlLk6GJQsqaUBKTNV-1" source="380VDxpQ8Sr3hK74BQXG-123" target="380VDxpQ8Sr3hK74BQXG-44" edge="1">
          <mxGeometry width="160" relative="1" as="geometry">
            <mxPoint x="162.5" y="901" as="sourcePoint" />
            <mxPoint x="159.5" y="1031" as="targetPoint" />
            <Array as="points">
              <mxPoint x="160" y="1162" />
              <mxPoint x="456" y="1162" />
            </Array>
          </mxGeometry>
        </mxCell>
        <mxCell id="380VDxpQ8Sr3hK74BQXG-130" value="_pos" style="edgeLabel;html=1;align=center;verticalAlign=middle;resizable=0;points=[];" parent="380VDxpQ8Sr3hK74BQXG-129" vertex="1" connectable="0">
          <mxGeometry x="0.0711" y="2" relative="1" as="geometry">
            <mxPoint x="152" y="137" as="offset" />
          </mxGeometry>
        </mxCell>
        <mxCell id="380VDxpQ8Sr3hK74BQXG-135" value="" style="endArrow=diamondThin;endFill=0;endSize=24;html=1;rounded=0;entryX=-0.025;entryY=0.25;entryDx=0;entryDy=0;entryPerimeter=0;exitX=0.689;exitY=1.018;exitDx=0;exitDy=0;exitPerimeter=0;" parent="WIyWlLk6GJQsqaUBKTNV-1" source="380VDxpQ8Sr3hK74BQXG-123" target="380VDxpQ8Sr3hK74BQXG-26" edge="1">
          <mxGeometry width="160" relative="1" as="geometry">
            <mxPoint x="245" y="921" as="sourcePoint" />
            <mxPoint x="583" y="1329.5" as="targetPoint" />
            <Array as="points">
              <mxPoint x="201" y="965" />
              <mxPoint x="821" y="965" />
              <mxPoint x="818" y="1096" />
            </Array>
          </mxGeometry>
        </mxCell>
        <mxCell id="380VDxpQ8Sr3hK74BQXG-137" value="_p" style="edgeLabel;html=1;align=center;verticalAlign=middle;resizable=0;points=[];" parent="380VDxpQ8Sr3hK74BQXG-135" vertex="1" connectable="0">
          <mxGeometry x="0.9243" y="4" relative="1" as="geometry">
            <mxPoint x="7" y="-12" as="offset" />
          </mxGeometry>
        </mxCell>
      </root>
    </mxGraphModel>
  </diagram>
</mxfile>
